<?xml version="1.0" encoding="utf-8"?>
<!-- Generator: Adobe Illustrator 25.2.1, SVG Export Plug-In . SVG Version: 6.00 Build 0)  -->
<svg version="1.1" id="Capa_1" xmlns="http://www.w3.org/2000/svg" xmlns:xlink="http://www.w3.org/1999/xlink" x="0px" y="0px"
	 viewBox="0 0 438 100.7" style="enable-background:new 0 0 438 100.7;" xml:space="preserve">
<style type="text/css">
	.st0{fill:#2F2762;}
</style>
<path class="st0" d="M54.9,54.7l0.9-0.1c0,0,0.7,0.2,0,0.7c-0.7,0.4-0.4,0.4-1,0.7c-0.6,0.2-10.9,4.2-10.9,4.2s-0.9,0.6-1.7-0.4
	c0,0-0.5-1.2,0.9-1.7L54.9,54.7z"/>
<path class="st0" d="M58,60.5l0.7-0.1c0,0,0.6,0.2,0,0.5c-0.6,0.3-0.3,0.3-0.8,0.5c-0.5,0.2-8.5,3.3-8.5,3.3s-0.7,0.5-1.3-0.3
	c0,0-0.4-0.9,0.7-1.3L58,60.5z"/>
<path class="st0" d="M59.3,66.3l0.4-0.1c0,0,0.4,0,0.1,0.3c-0.3,0.3-0.2,0.2-0.4,0.4c-0.3,0.2-4.9,2.9-4.9,2.9s-0.4,0.4-0.8-0.1
	c0,0-0.3-0.5,0.3-0.9L59.3,66.3z"/>
<g>
	<path class="st0" d="M28.9,53.7c-3.6,0-5.9-2.3-6.7-3.2c-1.5,1.7-4,2.4-7.5,2.1c-2.7-0.3-5-1.1-5.1-1.1l0.2-0.7
		c0.1,0,9.1,3.1,12.1-1.1l0.3-0.4l0.3,0.4c0.1,0.2,3.7,5.3,10.2,2.4l0.3,0.6C31.5,53.5,30.1,53.7,28.9,53.7z"/>
</g>
<g>
	<path class="st0" d="M73.7,52.6c-2.2,0-3.9-0.6-4-0.6l0.2-0.7c0.1,0,6.6,2.3,10.3-2.3l0.3-0.3l0.3,0.3c0.2,0.3,5.7,6.2,13.1-0.1
		l0.3-0.2l0.2,0.3c0.1,0.2,3.6,4.5,9.5,1l0.4,0.6c-1.8,1.1-3.4,1.5-4.8,1.5c-2.9,0-4.8-1.7-5.4-2.4c-6.9,5.6-12.3,1.3-13.6,0.1
		C78.6,52,75.9,52.6,73.7,52.6z"/>
</g>
<path class="st0" d="M93.8,49.6c-5.7,6.1-13.3-0.3-13.3-0.3c-0.4,0.8-1,1.2-1,1.2L70,99.5h10.7l1.6-4.4H92l1.4,4.5H104L93.8,49.6z
	 M86.9,72.9l3,11.8H84L86.9,72.9z M82.1,93.3l-0.5-1.5h-2.1l-0.4,1.5h-1.1l2.1-6.5h1.1l2.1,6.5H82.1z M87.7,93.3h-4.3v-1.2l2.8-4.2
	h-2.5v-1.1h3.9v1l-2.9,4.4h3V93.3z M92.6,90.2c0,0.8,0,1.3-0.1,1.6c-0.1,0.3-0.2,0.6-0.3,0.8c-0.2,0.2-0.4,0.4-0.6,0.5
	c-0.3,0.1-0.6,0.2-1,0.2c-0.5,0-0.9-0.1-1.2-0.2c-0.3-0.1-0.5-0.3-0.6-0.6c-0.2-0.2-0.3-0.5-0.3-0.7c-0.1-0.4-0.1-0.9-0.1-1.6v-3.5
	h1.1v3.5c0,0.6,0,0.9,0,1.1c0,0.3,0.2,0.5,0.3,0.6c0.2,0.2,0.4,0.2,0.7,0.2c0.3,0,0.5-0.1,0.7-0.2c0.2-0.2,0.2-0.3,0.3-0.6
	c0-0.2,0-0.6,0-1.1v-3.6h1.1V90.2z M93.8,93.3v-6.4h1.1v5.3h2.7v1.1H93.8z M79.8,90.7h1.5l-0.7-2.4L79.8,90.7z"/>
<path class="st0" d="M6.3,30.9c-0.1,0-0.4,0-0.8,0H5v1.8h0.6c0.4,0,0.7,0,0.9-0.1c0.1-0.1,0.3-0.2,0.3-0.3c0.1-0.1,0.1-0.3,0.1-0.5
	c0-0.2-0.1-0.4-0.2-0.6C6.6,31,6.5,30.9,6.3,30.9z M14.8,33.6h1.5l-0.7-2.4L14.8,33.6z M26.3,0L0,0v52.6c0,0,4.6,0.4,7.2-2.5
	c0,0,1.7,1.5,3.3,1.7V39.5h14.4c0,0,5.6,0.2,6.2-4.5V5.8C31.2,5.8,31.3,1,26.3,0z M11,11.7h6.3c1.3,0,1.5,1.4,1.5,1.4V26
	c-0.2,1.1-1.4,1.2-1.4,1.2H11V11.7z M7.8,32.7c-0.1,0.3-0.3,0.5-0.5,0.6c-0.2,0.2-0.4,0.3-0.6,0.3c-0.3,0.1-0.6,0.1-1.1,0.1H5v2.4
	H3.9v-6.5h1.7c0.7,0,1.1,0,1.3,0.1c0.3,0.1,0.6,0.3,0.8,0.6C7.9,30.8,8,31.2,8,31.7C8,32.1,7.9,32.5,7.8,32.7z M12.7,36.2H8.9v-6.4
	H10v5.3h2.7V36.2z M17.1,36.2l-0.5-1.5h-2.1L14,36.2h-1.1l2.1-6.5h1.1l2.1,6.5H17.1z M20.6,36.2h-1.1v-2.7l-2-3.8h1.3l1.3,2.6
	l1.2-2.6h1.2l-2,3.8V36.2z M26,36.2l-0.5-1.5h-2.1L23,36.2h-1.1l2.1-6.5h1.1l2.1,6.5H26z M23.8,33.6h1.5l-0.7-2.4L23.8,33.6z"/>
<path class="st0" d="M68.1,43.6c-3.3-1.3,0.1-5.5,0.1-5.5c-1.8-0.8-5.6,2.2-5.6,2.2c-2.5,2.5-2.7,1.6-2.7,1.6
	c-1.3,0.2-0.2-1.8-0.2-1.8c1.5-2.1,4.5-3.6,4.5-3.6c-1.9-3.2,2.1-6.4,2.1-6.4c-4.7-3.2,0.5-6.2,0.5-6.2c-5.5-3.2,0.8-5.8,0.8-5.8
	c-4.7-2.5-1.3-6.5-1.3-6.5c-3.8-0.2-3.2-5.3-3.2-5.3c-4.7,0.4-3.9-3.5-3.9-3.5c-3.5,2.3-5.8-1.7-5.8-1.7c-3.5,3.2-5.9,0-5.9,0
	c-0.6,2.5-2.9,2.8-2.9,2.8c1.8,3.9-2.4,4.5-2.4,4.5c1.3,2.8-0.7,5-0.7,5c2.7,5.1-3,8.9-3,8.9c0.2,1.7,0.6,2.5,0.6,2.5
	c1.6,1.6,3.6,0.1,3.6,0.1c2.2-1.1,3-6.9,3-6.9c4.2-0.2,4.9-1.1,4.9-1.1c4.1-2.2,3.8-1.5,3.8-1.5c2.1,9.9-9.3,10.4-9.3,10.4
	c3,7.3-5.5,5.7-5.5,5.7c4.5,8.7-3.8,8.5-3.8,8.5c4.1,10.6-3.8,12.6-3.8,12.6L32,99.5h38.6v-48C64,50,68.1,43.6,68.1,43.6z M48,13
	c-0.7,0-1.3-0.6-1.3-1.3s0.6-1.2,1.3-1.2c0.7,0,1.2,0.6,1.2,1.2S48.6,13,48,13z M66.6,53.6c-0.4,1.7-1.8-0.3-1.8-0.3
	c-2.9-1.2-1.7,1.4-1.7,1.4c1.6,3.2-0.7,1.2-0.7,1.2c-0.5-0.4-1.4-1.2-1.4-1.2c-2.4-2.1-2.8,1.6-2.8,1.6c-0.4,3,1.7,4.3,1.7,4.3
	c-0.8,5,1.2,4.9,1.2,4.9c-1.2,6.1,1.6,6.7,1.6,6.7c-1.2,3.4,0.5,4.1,0.5,4.1c-1.6,3.2,0.4,5.3,0.4,5.3c-1.6,2.8-0.8,4.7-0.8,4.7
	c-1.3,1.6-1.3,3.3-1.3,3.3L60.3,91L57,93.9c-6.1,4.6-10.1,0.9-10.1,0.9c-5.9-3.6-4.3-9.3-4.3-9.3c3-6.7,7.9-4.2,7.9-4.2
	c4.2,2.6,2.2,5.5,2.2,5.5c-0.7,2.1-3.9,1.6-3.9,1.6c-2.6-0.5-0.1-1.8-0.1-1.8c5.4-1.4,0.5-3.7,0.5-3.7c-4.7,0-4.2,4.2-4.2,4.2
	s1.4,5.5,5.7,5.5c4.2,0,6.1-4.1,6.1-4.1c1.6-0.9,0.7-3,0.7-3c2.1-3.2-0.5-4.3-0.5-4.3c0.9-4.7-3.2-5.5-3.2-5.5
	c-0.3-3.4-3.8-4.3-3.8-4.3c-0.4-4.5-4.5-4.3-4.5-4.3c-0.3-5.1-5.4-5.1-5.4-5.1c0.8-2.8-2.2-5.4-2.2-5.4v-6.4
	c7.8,4.6,13.7-1.1,13.7-1.1c5.8,6.1,12.9,0.9,12.9,0.9c0.8,2,1.3,2.6,1.3,2.6C67.3,53.7,66.6,53.6,66.6,53.6z"/>
<g>
	<g>
		<path class="st0" d="M223.5,21.6l0.8,11.9h-0.8c-1.1-3.6-2.6-6.1-4.6-7.7c-2-1.6-4.4-2.4-7.1-2.4c-2.3,0-4.4,0.6-6.3,1.8
			c-1.9,1.2-3.4,3.1-4.4,5.7c-1.1,2.6-1.6,5.8-1.6,9.7c0,3.2,0.5,5.9,1.5,8.3c1,2.3,2.6,4.1,4.6,5.4c2,1.2,4.4,1.9,7,1.9
			c2.3,0,4.3-0.5,6-1.5c1.7-1,3.7-2.9,5.7-5.8l0.8,0.5c-1.8,3.1-3.8,5.4-6.2,6.9c-2.3,1.5-5.1,2.2-8.4,2.2c-5.8,0-10.3-2.2-13.5-6.5
			c-2.4-3.2-3.6-7-3.6-11.3c0-3.5,0.8-6.7,2.4-9.7c1.6-2.9,3.7-5.2,6.5-6.8c2.8-1.6,5.8-2.4,9-2.4c2.5,0,5,0.6,7.5,1.9
			c0.7,0.4,1.2,0.6,1.6,0.6c0.5,0,0.9-0.2,1.2-0.5c0.4-0.5,0.8-1.1,1-1.9H223.5z"/>
		<path class="st0" d="M257.3,47.8l0.9,0.2l-3,9.5H228v-1h1.3c1.5,0,2.5-0.5,3.2-1.4c0.4-0.6,0.5-1.8,0.5-3.8V28.6
			c0-2.2-0.2-3.6-0.7-4.1c-0.7-0.8-1.7-1.1-3-1.1H228v-1h15.9v1c-1.9,0-3.2,0.2-3.9,0.5c-0.8,0.4-1.3,0.8-1.5,1.4
			c-0.3,0.6-0.4,1.9-0.4,4v22.1c0,1.4,0.1,2.4,0.4,3c0.2,0.4,0.5,0.6,1,0.8c0.4,0.2,1.8,0.3,4,0.3h2.6c2.7,0,4.6-0.2,5.7-0.6
			c1.1-0.4,2.1-1.1,3-2.1C255.5,51.5,256.4,50,257.3,47.8z"/>
		<path class="st0" d="M284.6,23.3v-1H297v1h-1.3c-1.4,0-2.4,0.6-3.2,1.7c-0.4,0.5-0.5,1.8-0.5,3.7V43c0,3.5-0.3,6.3-1,8.2
			c-0.7,1.9-2.1,3.6-4.1,5c-2,1.4-4.8,2.1-8.3,2.1c-3.8,0-6.7-0.7-8.7-2c-2-1.3-3.4-3.1-4.2-5.4c-0.6-1.5-0.8-4.4-0.8-8.6V28.6
			c0-2.2-0.3-3.6-0.9-4.2c-0.6-0.7-1.6-1-2.9-1h-1.3v-1h15.2v1h-1.3c-1.5,0-2.5,0.5-3.1,1.4c-0.4,0.6-0.6,1.9-0.6,3.9v15.3
			c0,1.4,0.1,2.9,0.4,4.7c0.2,1.8,0.7,3.1,1.4,4.1c0.7,1,1.6,1.8,2.8,2.4c1.2,0.6,2.7,1,4.5,1c2.3,0,4.3-0.5,6.2-1.5
			c1.8-1,3-2.3,3.7-3.8c0.7-1.6,1-4.2,1-7.9V28.6c0-2.2-0.2-3.6-0.7-4.1c-0.7-0.8-1.7-1.1-3-1.1H284.6z"/>
		<path class="st0" d="M322.1,39.6c2.4,0.5,4.3,1.3,5.5,2.5c1.7,1.6,2.5,3.5,2.5,5.8c0,1.7-0.6,3.4-1.7,5c-1.1,1.6-2.6,2.8-4.5,3.5
			c-1.9,0.7-4.9,1.1-8.8,1.1h-16.6v-1h1.3c1.5,0,2.5-0.5,3.2-1.4c0.4-0.6,0.6-1.9,0.6-3.9V28.6c0-2.2-0.2-3.5-0.7-4.1
			c-0.7-0.8-1.7-1.1-3-1.1h-1.3v-1h15.2c2.8,0,5.1,0.2,6.8,0.6c2.6,0.6,4.6,1.7,5.9,3.3c1.4,1.6,2,3.4,2,5.4c0,1.8-0.5,3.3-1.6,4.7
			C325.8,37.9,324.2,38.9,322.1,39.6z M308.5,38.2c0.6,0.1,1.4,0.2,2.2,0.3c0.8,0.1,1.7,0.1,2.7,0.1c2.5,0,4.4-0.3,5.7-0.8
			c1.3-0.5,2.2-1.4,2.9-2.5c0.7-1.1,1-2.3,1-3.7c0-2.1-0.8-3.8-2.5-5.3c-1.7-1.5-4.1-2.2-7.3-2.2c-1.7,0-3.3,0.2-4.7,0.6V38.2z
			 M308.5,54.9c2,0.5,4,0.7,5.9,0.7c3.1,0,5.5-0.7,7.1-2.1c1.6-1.4,2.5-3.1,2.5-5.2c0-1.4-0.4-2.7-1.1-3.9c-0.7-1.3-2-2.3-3.6-3
			c-1.7-0.7-3.7-1.1-6.2-1.1c-1.1,0-2,0-2.7,0.1c-0.8,0-1.4,0.1-1.8,0.2V54.9z"/>
	</g>
	<g>
		<path class="st0" d="M123.5,77.9v13.7c0,3,0.3,4.8,1,5.5c0.9,1,2.2,1.5,4,1.5h1.8v1.3h-20.1v-1.3h1.8c2,0,3.4-0.6,4.3-1.9
			c0.5-0.7,0.7-2.4,0.7-5.1V61.3c0-3-0.3-4.8-0.9-5.5c-0.9-1-2.2-1.5-4-1.5h-1.8V53h17.2c4.2,0,7.5,0.4,9.9,1.3
			c2.4,0.9,4.5,2.3,6.1,4.4c1.7,2.1,2.5,4.5,2.5,7.3c0,3.8-1.3,7-3.8,9.4c-2.5,2.4-6.1,3.6-10.7,3.6c-1.1,0-2.4-0.1-3.7-0.2
			C126.4,78.5,125,78.3,123.5,77.9z M123.5,76c1.2,0.2,2.3,0.4,3.3,0.5c0.9,0.1,1.8,0.2,2.4,0.2c2.4,0,4.5-0.9,6.2-2.8
			c1.7-1.9,2.6-4.3,2.6-7.2c0-2-0.4-3.9-1.2-5.7c-0.8-1.7-2-3-3.5-3.9c-1.5-0.9-3.3-1.3-5.2-1.3c-1.2,0-2.7,0.2-4.5,0.7V76z"/>
		<path class="st0" d="M176.9,90.9l0.8,0.2l-2.8,8.9h-25.5v-0.9h1.2c1.4,0,2.4-0.5,3-1.4c0.3-0.5,0.5-1.7,0.5-3.6V72.9
			c0-2.1-0.2-3.3-0.7-3.9c-0.6-0.7-1.6-1.1-2.8-1.1h-1.2v-0.9h14.9V68c-1.7,0-3,0.1-3.7,0.5c-0.7,0.3-1.2,0.8-1.4,1.3
			c-0.3,0.5-0.4,1.8-0.4,3.7v20.7c0,1.3,0.1,2.3,0.4,2.8c0.2,0.3,0.5,0.6,0.9,0.8c0.4,0.2,1.7,0.2,3.8,0.2h2.4
			c2.5,0,4.3-0.2,5.3-0.6c1-0.4,1.9-1,2.8-2C175.2,94.4,176,92.9,176.9,90.9z"/>
		<path class="st0" d="M201.5,88.9h-12.7l-2.2,5.2c-0.5,1.3-0.8,2.2-0.8,2.9c0,0.5,0.2,0.9,0.7,1.3c0.5,0.4,1.5,0.6,3.1,0.7v0.9
			h-10.4v-0.9c1.4-0.2,2.3-0.6,2.7-0.9c0.8-0.8,1.7-2.4,2.7-4.7l11.6-27.1h0.8l11.5,27.4c0.9,2.2,1.8,3.6,2.5,4.3
			c0.8,0.7,1.8,1,3.1,1.1v0.9h-13v-0.9c1.3-0.1,2.2-0.3,2.7-0.7c0.5-0.4,0.7-0.8,0.7-1.4c0-0.7-0.3-1.8-1-3.4L201.5,88.9z
			 M200.8,87.1l-5.6-13.3l-5.7,13.3H200.8z"/>
		<path class="st0" d="M233.8,67.1h11.5V68h-0.6c-0.4,0-1,0.2-1.8,0.6c-0.8,0.4-1.5,0.9-2.2,1.6c-0.7,0.7-1.5,1.8-2.4,3.4L230.2,86
			v8.2c0,2,0.2,3.3,0.7,3.8c0.6,0.7,1.6,1,2.9,1h1.1v0.9h-14v-0.9h1.2c1.4,0,2.4-0.4,3-1.3c0.4-0.5,0.5-1.7,0.5-3.5v-7.8l-9-13.8
			c-1.1-1.6-1.8-2.6-2.2-3c-0.4-0.4-1.2-0.9-2.4-1.5c-0.3-0.2-0.8-0.2-1.4-0.2v-0.9h14.1V68h-0.7c-0.8,0-1.5,0.2-2.1,0.5
			c-0.6,0.4-1,0.9-1,1.6c0,0.6,0.5,1.6,1.5,3.2l6.9,10.6l6.5-10.1c1-1.5,1.5-2.7,1.5-3.4c0-0.5-0.1-0.9-0.4-1.2
			c-0.2-0.4-0.6-0.6-1-0.8c-0.4-0.2-1.1-0.3-2-0.3V67.1z"/>
		<path class="st0" d="M263.2,88.9h-12.7l-2.2,5.2c-0.6,1.3-0.8,2.2-0.8,2.9c0,0.5,0.2,0.9,0.7,1.3c0.5,0.4,1.5,0.6,3.1,0.7v0.9
			h-10.4v-0.9c1.4-0.2,2.3-0.6,2.7-0.9c0.8-0.8,1.7-2.4,2.7-4.7l11.6-27.1h0.8l11.5,27.4c0.9,2.2,1.8,3.6,2.5,4.3
			c0.8,0.7,1.8,1,3.1,1.1v0.9h-13v-0.9c1.3-0.1,2.2-0.3,2.7-0.7c0.5-0.4,0.7-0.8,0.7-1.4c0-0.7-0.3-1.8-1-3.4L263.2,88.9z
			 M262.5,87.1l-5.6-13.3l-5.7,13.3H262.5z"/>
		<path class="st0" d="M316.8,88.9h-12.7l-2.2,5.2c-0.5,1.3-0.8,2.2-0.8,2.9c0,0.5,0.2,0.9,0.7,1.3c0.5,0.4,1.5,0.6,3.1,0.7v0.9
			h-10.4v-0.9c1.4-0.2,2.3-0.6,2.7-0.9c0.8-0.8,1.7-2.4,2.7-4.7l11.6-27.1h0.8l11.5,27.4c0.9,2.2,1.8,3.6,2.5,4.3
			c0.8,0.7,1.8,1,3.1,1.1v0.9h-13v-0.9c1.3-0.1,2.2-0.3,2.7-0.7c0.5-0.4,0.7-0.8,0.7-1.4c0-0.7-0.3-1.8-1-3.4L316.8,88.9z
			 M316.1,87.1l-5.6-13.3l-5.7,13.3H316.1z"/>
		<path class="st0" d="M358.5,67.1L336.9,98h13.5c2.1,0,3.7-0.5,4.8-1.4c1.1-0.9,2.1-2.7,2.9-5.5l0.8,0.1l-1.6,8.7h-26.8v-0.9
			l21.1-30h-10.5c-1.7,0-3,0.2-3.8,0.6c-0.8,0.4-1.4,0.9-1.8,1.6c-0.4,0.7-0.8,2.1-1.1,4h-0.9l0.7-8.2H358.5z"/>
		<path class="st0" d="M384,68v-0.9h11.6V68h-1.2c-1.3,0-2.3,0.5-3,1.6c-0.3,0.5-0.5,1.7-0.5,3.5v13.3c0,3.3-0.3,5.9-1,7.7
			c-0.7,1.8-1.9,3.4-3.9,4.7c-1.9,1.3-4.5,2-7.8,2c-3.6,0-6.3-0.6-8.2-1.9c-1.9-1.2-3.2-2.9-4-5c-0.5-1.4-0.8-4.1-0.8-8.1V72.9
			c0-2-0.3-3.3-0.8-4c-0.6-0.6-1.5-0.9-2.7-0.9h-1.2v-0.9h14.2V68h-1.3c-1.4,0-2.3,0.4-2.9,1.3c-0.4,0.6-0.6,1.8-0.6,3.6v14.3
			c0,1.3,0.1,2.7,0.4,4.4c0.2,1.6,0.7,2.9,1.3,3.9c0.6,0.9,1.5,1.7,2.7,2.3c1.2,0.6,2.6,0.9,4.3,0.9c2.2,0,4.1-0.5,5.8-1.4
			c1.7-0.9,2.9-2.1,3.5-3.6c0.6-1.5,0.9-3.9,0.9-7.4V72.9c0-2.1-0.2-3.3-0.7-3.9c-0.6-0.7-1.6-1.1-2.8-1.1H384z"/>
		<path class="st0" d="M436.9,87l1.1,0.2l-4,12.8h-36.4v-1.3h1.8c2,0,3.4-0.6,4.3-1.9c0.5-0.7,0.7-2.4,0.7-5.1V61.3
			c0-2.9-0.3-4.8-1-5.5c-0.9-1-2.2-1.5-4-1.5h-1.8V53h21.3v1.3c-2.5,0-4.2,0.2-5.3,0.7c-1,0.5-1.7,1.1-2.1,1.8
			c-0.4,0.7-0.6,2.5-0.6,5.3v29.5c0,1.9,0.2,3.2,0.6,4c0.3,0.5,0.7,0.8,1.3,1.1c0.6,0.2,2.4,0.3,5.4,0.3h3.4c3.6,0,6.1-0.3,7.6-0.8
			c1.5-0.5,2.8-1.5,4-2.8C434.5,92,435.7,89.9,436.9,87z"/>
	</g>
</g>
</svg>
